<?xml version="1.0" encoding="utf-8"?>
<!-- Generator: Adobe Illustrator 16.0.0, SVG Export Plug-In . SVG Version: 6.00 Build 0)  -->
<!DOCTYPE svg PUBLIC "-//W3C//DTD SVG 1.1//EN" "http://www.w3.org/Graphics/SVG/1.1/DTD/svg11.dtd">
<svg version="1.1" xmlns="http://www.w3.org/2000/svg" xmlns:xlink="http://www.w3.org/1999/xlink" x="0px" y="0px" width="491px"
	 height="449px" viewBox="0 0 491 449" style="enable-background:new 0 0 491 449;" xml:space="preserve">
<style type="text/css">
<![CDATA[
	.st0{fill-rule:evenodd;clip-rule:evenodd;}
	.st1{fill-rule:evenodd;clip-rule:evenodd;fill:#FF6633;}
	.st2{fill-rule:evenodd;clip-rule:evenodd;fill:#FFB44A;}
	.st3{fill-rule:evenodd;clip-rule:evenodd;fill:#FFFFFF;}
	.st4{display:none;}
	.st5{display:inline;fill-rule:evenodd;clip-rule:evenodd;fill:#0000FF;}
]]>
</style>
<g id="Layer_2" class="st4">
	<rect x="-217" y="-36" class="st5" width="960" height="560"/>
</g>
<g id="Layer_1">
	<path class="st0" d="M132.628,336.531c-1.792-4.66-3.92-10.197-6.275-16.322c3.111-1.182,5.982-2.295,8.868-3.367
		c36.521-13.578,72.914-27.518,109.62-40.578c20.416-7.266,41.502-12.41,63.385-12.926c8.668-0.205,17.327,0.102,25.188,4.574
		c3.77,2.145,5.643,5.299,5.91,9.699c0.293,4.795-0.463,10.723,2.053,13.996c2.32,3.02,8.353,3.227,12.777,4.584
		c13.687,4.199,27.367,8.422,41.099,12.469c2.452,0.723,3.755,1.77,3.62,4.391c-0.051,0.988,0.15,1.992,0.262,2.984
		c1.229,10.951,0.947,10.359-8.752,15.004c-11.038,5.287-21.289,5.348-32.865,1.184c-16.257-5.848-33.146-9.947-49.812-14.627
		c-2.146-0.602-4.658-0.65-6.851-0.211c-33.39,6.682-67.263,9.252-101.099,12.254C177.567,331.607,155.434,334.168,132.628,336.531z
		 M252.298,307.658c-41.62,4.688-83.088,5.193-124.413,13.154c1.849,4.863,3.153,8.99,5.042,12.828
		c0.541,1.1,2.844,2.051,4.223,1.912c31.605-3.184,63.195-6.529,94.788-9.838c7.056-0.738,14.115-1.455,21.643-2.232
		C253.139,318.033,252.742,313.143,252.298,307.658z M304.168,299.871c0,4.445,0.092,8.064-0.03,11.678
		c-0.091,2.705,1.225,3.582,3.709,4.26c12.504,3.406,24.956,7.012,37.396,10.645c9.022,2.637,18,5.426,27.662,8.35
		c0-3.805-0.32-6.822,0.074-9.744c0.592-4.375-1.32-6.018-5.344-7.143c-12.809-3.576-25.473-7.67-38.251-11.361
		C321.144,304.174,312.801,302.145,304.168,299.871z M393.422,311.055c-0.051-0.488-0.102-0.979-0.151-1.467
		c-18.972-5.498-38.101-10.521-56.857-16.674c-11.15-3.658-19.876,1.154-29.444,5.004c22.049,6.553,43.678,12.992,65.321,19.383
		c0.915,0.27,2.056,0.393,2.929,0.1C381.311,315.357,387.359,313.186,393.422,311.055z M255.346,323.268
		c15.221-2.699,29.9-5.26,44.545-8c0.855-0.16,1.994-1.748,2.053-2.729c0.234-3.936,0.097-7.891,0.097-11.873
		c-16.421,2.668-31.925,5.186-48.023,7.801C254.432,313.092,254.84,317.637,255.346,323.268z M337.363,276.182
		c-25.256,9.566-49.137,18.613-73.814,27.963c1.307,0.285,1.637,0.443,1.945,0.41c20.5-2.172,40.221-7.422,59.098-15.617
		C329.791,286.68,334.844,283.594,337.363,276.182z M396.799,311.924c-6.727,2.412-12.987,4.58-19.169,6.955
		c-1.011,0.389-2.319,1.656-2.376,2.586c-0.257,4.191-0.112,8.408-0.112,13.158c4.774-1.717,8.829-3.139,12.855-4.635
		c2.802-1.041,5.639-2.039,8.309-3.361c0.941-0.467,2.08-1.889,2.017-2.797C398.049,319.916,397.363,316.031,396.799,311.924z
		 M329.575,289.379c3.171,0.734,5.837,1.352,9.132,2.113c-0.281-3.504-0.52-6.482-0.801-9.988
		C334.989,284.262,332.553,286.564,329.575,289.379z"/>
	<path class="st3" d="M252.298,307.658c0.444,5.484,0.841,10.375,1.282,15.824c-7.527,0.777-14.586,1.494-21.643,2.232
		c-31.593,3.309-63.182,6.654-94.788,9.838c-1.378,0.139-3.682-0.812-4.223-1.912c-1.889-3.838-3.194-7.965-5.042-12.828
		C169.21,312.852,210.678,312.346,252.298,307.658z"/>
	<g>
		<path class="st2" d="M304.168,299.871c8.633,2.273,16.976,4.303,25.216,6.684c12.778,3.691,25.442,7.785,38.251,11.361
			c4.023,1.125,5.936,2.768,5.344,7.143c-0.395,2.922-0.074,5.939-0.074,9.744c-9.662-2.924-18.64-5.713-27.662-8.35
			c-12.439-3.633-24.892-7.238-37.396-10.645c-2.484-0.678-3.8-1.555-3.709-4.26C304.26,307.936,304.168,304.316,304.168,299.871z"
			/>
		<path class="st2" d="M393.422,311.055c-6.062,2.131-12.111,4.303-18.203,6.346c-0.873,0.293-2.014,0.17-2.929-0.1
			c-21.644-6.391-43.272-12.83-65.321-19.383c9.568-3.85,18.294-8.662,29.444-5.004c18.757,6.152,37.886,11.176,56.857,16.674
			C393.32,310.076,393.371,310.566,393.422,311.055z"/>
		<path class="st2" d="M255.346,323.268c-0.506-5.631-0.914-10.176-1.329-14.801c16.099-2.615,31.603-5.133,48.023-7.801
			c0,3.982,0.138,7.938-0.097,11.873c-0.059,0.98-1.197,2.568-2.053,2.729C285.246,318.008,270.566,320.568,255.346,323.268z"/>
		<path class="st2" d="M337.363,276.182c-2.52,7.412-7.572,10.498-12.771,12.756c-18.877,8.195-38.598,13.445-59.098,15.617
			c-0.309,0.033-0.639-0.125-1.945-0.41C288.227,294.795,312.107,285.748,337.363,276.182z"/>
		<path class="st2" d="M396.799,311.924c0.564,4.107,1.25,7.992,1.523,11.906c0.063,0.908-1.075,2.33-2.017,2.797
			c-2.67,1.322-5.507,2.32-8.309,3.361c-4.026,1.496-8.081,2.918-12.855,4.635c0-4.75-0.145-8.967,0.112-13.158
			c0.057-0.93,1.365-2.197,2.376-2.586C383.812,316.504,390.072,314.336,396.799,311.924z"/>
		<path class="st2" d="M329.575,289.379c2.978-2.814,5.414-5.117,8.331-7.875c0.281,3.506,0.52,6.484,0.801,9.988
			C335.412,290.73,332.746,290.113,329.575,289.379z"/>
	</g>
	<circle class="st1" cx="219.333" cy="137.74" r="19.667"/>
</g>
</svg>
